<?xml version="1.0" standalone="no"?>
<!DOCTYPE svg PUBLIC "-//W3C//DTD SVG 20010904//EN"
 "http://www.w3.org/TR/2001/REC-SVG-20010904/DTD/svg10.dtd">
<svg version="1.0" xmlns="http://www.w3.org/2000/svg"
 width="1024.000000pt" height="1024.000000pt" viewBox="0 0 1024.000000 1024.000000"
 preserveAspectRatio="xMidYMid meet">

<g transform="translate(0.000000,1024.000000) scale(0.100000,-0.100000)"
fill="#000000" stroke="none">
<path d="M5045 8908 c-16 -6 -49 -28 -72 -51 -51 -49 -99 -58 -113 -21 -12 31
-46 51 -98 59 -56 8 -149 -4 -155 -20 -3 -6 3 -31 14 -54 14 -33 28 -46 65
-62 43 -20 49 -20 112 -6 37 8 68 14 69 13 2 -1 6 -24 9 -50 l7 -48 -52 7
c-93 13 -141 -42 -141 -162 0 -96 29 -172 86 -230 48 -48 84 -55 111 -23 22
25 31 25 63 0 40 -31 63 -25 117 33 85 90 111 162 93 258 -19 100 -78 146
-166 130 -27 -5 -50 -9 -51 -8 -1 1 3 24 9 51 9 42 12 47 32 42 11 -4 53 -9
91 -12 68 -6 71 -5 101 24 44 44 71 107 54 127 -15 18 -136 20 -185 3z m18
-336 c16 -27 18 -38 8 -58 -18 -41 -38 -40 -76 2 -40 45 -41 51 -18 76 25 28
63 19 86 -20z"/>
<path d="M5324 8786 c-9 -23 32 -119 64 -149 15 -14 48 -35 74 -47 41 -18 59
-20 141 -14 93 7 94 7 100 -17 14 -52 10 -59 -38 -59 -59 0 -117 -30 -144 -73
-34 -55 -30 -171 9 -251 33 -70 89 -133 126 -142 18 -5 32 0 48 15 28 26 41
26 73 1 14 -11 34 -20 44 -20 33 0 79 51 120 135 36 73 41 91 42 157 2 124
-47 182 -152 179 -50 -1 -61 1 -61 14 0 13 15 50 25 63 1 1 15 -2 31 -8 49
-19 121 -3 165 37 48 44 95 121 81 135 -15 15 -151 14 -197 -2 -22 -7 -63 -35
-92 -61 -28 -27 -60 -49 -70 -49 -10 0 -31 18 -46 40 -56 79 -137 119 -264
128 -61 4 -74 2 -79 -12z m548 -383 c26 -29 30 -60 14 -92 -9 -16 -20 -32 -25
-36 -14 -8 -61 65 -61 95 0 47 42 66 72 33z"/>
<path d="M4325 8666 c-49 -12 -101 -28 -115 -35 -36 -19 -79 -61 -96 -94 -13
-25 -19 -27 -46 -22 -16 4 -48 25 -69 46 -21 21 -45 40 -51 41 -54 6 -82 6
-141 -4 -61 -10 -67 -13 -61 -32 18 -62 98 -134 136 -122 7 2 41 7 75 10 l61
6 11 -32 c19 -54 16 -58 -47 -58 -54 0 -61 -3 -94 -37 -84 -87 -61 -248 52
-365 50 -52 77 -59 105 -28 21 24 43 25 69 5 49 -37 111 3 166 107 44 82 54
192 22 254 -35 68 -54 79 -137 77 l-73 -2 13 42 13 42 65 -3 c36 -2 85 2 109
8 56 15 128 89 146 149 8 24 16 49 19 57 7 20 -24 17 -132 -10z m-89 -404 c15
-33 15 -36 -4 -61 -10 -14 -25 -26 -33 -26 -8 0 -29 23 -47 50 l-33 50 26 22
c21 19 29 21 50 11 13 -6 31 -26 41 -46z"/>
<path d="M6109 8605 c-3 -2 -1 -42 3 -87 10 -103 42 -160 108 -195 83 -42 125
-14 117 79 -6 73 -49 134 -122 174 -55 31 -94 42 -106 29z"/>
<path d="M3499 8448 c-4 -69 3 -198 12 -231 16 -58 94 -137 137 -137 39 0 51
20 58 98 11 108 -30 188 -129 249 -56 35 -77 40 -78 21z"/>
<path d="M4523 8436 c-70 -59 -110 -190 -93 -308 5 -35 10 -69 10 -75 0 -24
28 -13 84 33 92 74 108 126 81 265 -21 106 -37 123 -82 85z"/>
<path d="M6648 8395 c-3 -3 -31 -12 -62 -20 -71 -19 -150 -68 -203 -128 -22
-26 -48 -47 -58 -47 -9 0 -30 11 -47 25 -16 13 -46 29 -68 35 -46 12 -147 2
-154 -15 -8 -23 17 -87 41 -102 19 -12 42 -15 107 -11 l84 6 6 -30 c11 -58 11
-58 -62 -58 -64 0 -70 -2 -99 -32 -45 -48 -53 -70 -53 -140 1 -98 66 -220 136
-253 35 -17 37 -17 67 5 28 22 31 22 57 6 50 -29 83 -21 130 30 62 67 94 144
95 224 0 119 -57 185 -156 178 l-51 -3 6 29 c3 16 6 35 6 42 0 11 21 14 93 14
73 0 98 4 123 19 61 37 122 138 123 204 1 23 -3 27 -27 27 -16 0 -31 -2 -34
-5z m-209 -410 c45 -23 56 -78 22 -109 -24 -22 -35 -16 -72 42 -27 43 -28 47
-12 64 20 22 26 22 62 3z"/>
<path d="M5278 8300 c-60 -8 -122 -39 -138 -71 -6 -10 -27 -26 -47 -34 l-36
-15 7 -71 7 -71 -58 6 c-71 8 -116 -15 -140 -72 -23 -56 -14 -186 17 -238 41
-68 88 -121 120 -134 28 -12 34 -11 62 10 l30 22 38 -21 c21 -11 45 -21 53
-21 30 0 77 52 112 124 48 97 58 200 26 264 -30 60 -58 75 -136 73 -36 -1 -65
1 -65 4 0 14 23 95 27 95 2 0 17 -7 33 -15 36 -19 103 -11 142 17 29 20 75
125 61 139 -14 13 -56 17 -115 9z m-29 -346 c12 -15 21 -33 21 -41 0 -24 -30
-73 -44 -73 -17 0 -66 73 -66 98 0 46 57 56 89 16z"/>
<path d="M6795 8270 c-12 -20 -10 -185 3 -222 10 -29 27 -45 70 -72 73 -43 94
-49 117 -32 31 22 33 129 3 185 -36 71 -174 171 -193 141z"/>
<path d="M3287 8209 c-54 -49 -70 -70 -82 -112 -19 -65 -19 -107 1 -135 21
-31 61 -28 115 8 62 41 79 81 79 188 0 133 -16 140 -113 51z"/>
<path d="M4587 8031 c-43 -26 -91 -60 -107 -74 -34 -32 -65 -117 -55 -154 6
-25 7 -25 73 -18 74 8 106 21 138 57 34 36 52 80 63 147 17 108 3 113 -112 42z"/>
<path d="M3585 8031 c-8 -14 3 -175 15 -221 6 -21 30 -62 55 -92 24 -29 40
-54 35 -56 -31 -11 4 -194 58 -315 16 -34 52 -143 81 -242 29 -99 79 -265 111
-370 62 -206 77 -275 59 -275 -13 0 -146 92 -239 165 -120 95 -480 333 -585
387 -78 41 -163 78 -177 78 -7 1 -23 9 -35 19 -19 16 -24 33 -29 107 -7 96
-25 151 -68 201 -31 37 -127 98 -170 109 l-28 7 4 -99 c7 -168 53 -238 187
-290 73 -28 74 -29 102 -89 31 -64 37 -103 17 -109 -7 -3 -32 -7 -55 -10 -32
-5 -43 -3 -43 7 0 22 -52 65 -115 93 -52 24 -75 28 -167 30 -102 3 -108 2
-108 -17 0 -51 70 -139 138 -173 47 -24 149 -23 205 2 l45 20 19 -46 c10 -26
20 -51 22 -55 1 -4 -22 -7 -52 -6 -65 3 -94 -12 -128 -68 -35 -56 -33 -166 3
-245 24 -52 101 -148 118 -148 4 0 24 11 44 25 l37 25 29 -20 c45 -32 78 -26
125 24 131 136 142 347 20 406 -35 17 -53 20 -94 14 -28 -4 -51 -5 -51 -2 0 2
7 25 16 51 15 44 18 47 50 47 69 0 178 -57 297 -156 61 -52 154 -119 205 -150
51 -31 111 -70 133 -86 l41 -30 -28 -18 c-16 -9 -40 -29 -53 -44 -30 -32 -51
-33 -81 -2 -44 48 -107 70 -198 70 -50 -1 -88 -6 -95 -13 -16 -16 26 -95 70
-128 32 -24 37 -25 127 -18 l93 7 12 -33 c20 -57 17 -61 -41 -58 -74 4 -92 -5
-128 -62 -31 -47 -32 -53 -28 -127 6 -98 36 -168 94 -222 48 -45 81 -51 109
-20 10 11 24 20 30 20 7 0 24 -9 38 -20 14 -11 35 -20 46 -20 30 0 93 67 124
131 62 126 54 250 -20 306 -32 25 -44 28 -100 25 -60 -2 -63 -1 -63 21 0 13 6
31 13 39 12 17 110 58 135 58 55 0 197 -125 337 -295 141 -173 435 -592 450
-643 9 -32 -13 -37 -87 -19 -195 45 -511 132 -628 172 -181 61 -276 91 -390
121 -60 16 -134 46 -200 81 -58 31 -138 66 -178 79 -40 12 -97 37 -127 55 -60
36 -73 60 -95 175 -25 128 -101 212 -108 120 -4 -42 38 -181 70 -233 14 -24
17 -41 12 -68 -8 -43 -10 -45 -84 -55 -89 -13 -163 -51 -226 -117 -41 -42 -54
-63 -52 -81 3 -21 9 -25 53 -28 28 -2 66 -6 85 -8 19 -3 64 0 100 6 49 9 70
18 87 37 26 31 28 41 8 41 -24 0 -18 16 20 49 43 38 84 40 176 11 69 -21 109
-44 109 -63 0 -20 -89 -62 -126 -58 -28 2 -34 -1 -34 -18 0 -11 4 -30 9 -43 4
-13 11 -36 15 -51 l7 -29 -63 7 c-52 5 -68 3 -94 -14 -64 -40 -90 -144 -60
-243 19 -65 80 -151 121 -173 34 -19 35 -19 64 3 37 27 37 27 68 2 37 -29 68
-25 112 16 53 47 85 106 101 181 29 141 -28 239 -137 234 l-43 -1 0 39 0 38
153 -2 c149 -2 154 -3 277 -44 142 -47 203 -76 180 -85 -8 -3 -45 -12 -83 -21
-83 -18 -132 -43 -174 -87 -47 -49 -103 -178 -76 -178 3 0 42 7 87 16 98 19
150 48 208 113 35 40 54 52 103 66 38 11 74 15 100 11 59 -10 205 -55 205 -65
0 -4 -29 -20 -65 -36 -64 -27 -115 -72 -137 -121 -17 -37 -54 -42 -86 -11 -40
36 -65 47 -115 47 -50 0 -130 -25 -148 -46 -10 -12 -7 -20 12 -40 45 -48 72
-56 153 -45 40 6 80 13 88 16 17 7 28 -20 28 -68 0 -27 -1 -28 -50 -26 -88 4
-142 -57 -142 -160 0 -91 25 -161 78 -220 56 -62 86 -72 119 -41 l24 22 36
-22 c31 -19 39 -21 65 -10 64 27 146 161 156 259 5 37 0 56 -23 100 -36 70
-78 94 -145 85 l-48 -6 0 51 c0 51 0 51 28 44 15 -5 58 -8 95 -8 66 0 70 1
103 37 22 25 34 48 34 67 0 48 9 61 44 61 42 0 223 -80 305 -134 123 -82 171
-144 218 -279 l25 -72 -4 -418 c-2 -243 -8 -421 -14 -425 -5 -4 -9 -43 -9 -87
0 -44 -3 -102 -7 -130 -3 -27 -15 -124 -27 -215 -23 -182 -50 -278 -113 -404
-65 -128 -114 -200 -183 -265 -131 -122 -268 -198 -560 -311 -116 -45 -223
-88 -240 -95 -16 -8 -84 -35 -150 -60 -173 -66 -413 -176 -441 -202 -42 -39
-20 -103 35 -103 47 0 344 128 549 236 70 37 143 76 163 86 27 14 53 18 95 16
l59 -3 -40 -40 c-23 -22 -122 -86 -225 -144 -102 -57 -216 -123 -255 -146 -38
-24 -89 -52 -112 -64 -64 -32 -82 -81 -43 -116 14 -13 29 -16 55 -12 42 7 513
282 645 377 52 38 126 95 164 127 99 83 223 180 264 205 28 17 36 18 43 7 16
-25 10 -50 -22 -95 -62 -86 -316 -281 -617 -474 -281 -180 -310 -207 -284
-265 23 -49 60 -36 257 94 50 33 126 82 170 110 44 28 119 81 166 118 48 38
123 94 166 126 81 58 185 157 225 213 13 17 49 62 81 100 60 70 132 190 215
356 36 71 52 94 69 96 34 5 39 -35 13 -115 -24 -77 -117 -259 -185 -364 -55
-86 -217 -249 -340 -343 -49 -39 -153 -120 -229 -180 -77 -61 -184 -145 -239
-186 -119 -89 -128 -100 -107 -138 21 -36 59 -40 114 -9 80 45 246 168 329
244 45 42 133 123 194 180 62 57 117 102 123 98 13 -8 12 -54 -3 -87 -12 -26
-100 -124 -310 -346 -117 -123 -133 -147 -123 -186 10 -40 43 -52 81 -32 38
21 165 165 271 306 75 101 91 112 137 94 14 -5 14 -10 1 -47 -18 -50 -91 -178
-156 -271 -60 -86 -69 -128 -37 -162 52 -56 100 -14 184 160 58 122 84 194 99
274 6 37 -22 76 -49 66 -8 -4 -15 -1 -15 5 0 11 60 168 90 237 10 22 34 86 54
141 38 111 83 205 115 243 17 21 22 23 31 10 5 -8 10 -26 10 -40 0 -40 -66
-308 -94 -381 -16 -44 -28 -104 -35 -181 -12 -131 -27 -216 -70 -403 -24 -106
-27 -134 -18 -154 28 -58 89 -52 121 12 25 51 61 236 75 385 13 131 37 239 75
337 12 33 33 92 46 130 43 132 61 175 73 175 26 0 40 -20 43 -63 5 -61 -44
-164 -83 -173 -24 -6 -25 -8 -9 -20 13 -9 15 -17 7 -31 -5 -10 -20 -67 -31
-128 -20 -103 -26 -226 -15 -330 2 -22 6 -96 10 -165 8 -169 12 -187 40 -206
33 -21 60 -10 80 33 16 33 17 60 11 267 -12 360 -9 482 13 530 16 37 48 75 54
65 24 -36 38 -95 42 -172 21 -360 51 -559 100 -643 29 -49 43 -57 76 -40 43
21 52 57 40 151 -7 46 -11 110 -10 142 1 32 -3 85 -9 118 -6 33 -11 82 -11
108 -1 27 -6 69 -11 94 -6 25 -20 114 -30 197 -12 90 -34 198 -54 266 -60 200
-121 519 -127 660 -4 93 -1 110 19 110 25 0 49 -46 67 -126 9 -38 29 -116 45
-174 16 -58 36 -149 44 -202 9 -54 32 -141 53 -195 32 -85 45 -106 98 -158
115 -114 243 -209 377 -276 35 -17 77 -42 94 -55 48 -37 425 -217 569 -272
162 -61 195 -68 235 -47 55 28 31 84 -50 115 -250 96 -576 263 -778 399 -226
152 -404 351 -367 410 18 30 77 -7 123 -77 9 -13 54 -50 101 -82 47 -31 133
-94 191 -140 206 -160 457 -288 800 -408 227 -79 266 -86 308 -56 30 21 30 69
0 88 -21 13 -120 53 -523 211 -198 78 -273 119 -337 188 -59 61 -73 99 -42
111 30 12 43 6 116 -55 85 -72 107 -83 293 -143 77 -25 232 -77 345 -116 279
-97 334 -112 368 -99 32 12 42 26 42 60 0 44 1 44 -275 148 -71 27 -292 105
-490 174 -490 170 -610 218 -691 279 -247 182 -279 216 -354 372 -32 67 -68
156 -80 197 -24 85 -50 251 -50 322 0 26 -6 60 -14 75 -24 47 14 222 49 222
29 0 35 -26 35 -155 0 -245 44 -439 141 -626 77 -148 206 -260 454 -392 141
-75 205 -99 600 -223 83 -25 253 -80 380 -121 264 -86 397 -123 441 -123 52 0
90 46 72 86 -13 27 -68 52 -213 95 -60 18 -211 63 -335 100 -124 37 -330 95
-459 129 -272 71 -314 88 -309 128 3 25 6 27 48 25 52 -2 189 -33 455 -103
105 -27 249 -66 320 -84 72 -19 204 -55 295 -81 91 -25 197 -49 237 -52 70 -6
72 -5 103 26 63 63 29 91 -213 175 -472 166 -981 285 -1322 310 -239 18 -250
18 -289 2 -37 -16 -38 -15 -65 12 -39 38 -103 153 -139 248 -51 134 -91 369
-112 654 -13 175 -28 334 -40 410 -5 36 -10 180 -11 321 -1 252 -1 257 25 339
41 124 90 193 191 265 58 42 272 147 470 231 44 19 100 47 125 62 25 15 83 38
130 50 108 29 257 95 339 149 l64 43 52 -54 c73 -76 138 -93 209 -55 42 22 48
20 64 -26 5 -16 13 -38 17 -48 7 -16 2 -18 -52 -16 -75 3 -116 -23 -145 -89
-17 -38 -19 -57 -14 -120 9 -92 37 -152 100 -210 51 -47 72 -51 109 -22 30 24
45 25 71 5 33 -25 64 -17 110 25 91 84 131 247 84 340 -31 61 -89 91 -160 83
l-49 -6 7 39 c9 50 11 54 34 54 11 0 49 12 85 27 l64 26 50 -46 c27 -25 62
-49 78 -52 15 -4 37 -8 48 -10 11 -3 53 -2 93 2 58 5 75 10 83 26 10 17 2 28
-58 86 -58 56 -81 71 -157 100 -49 19 -104 34 -122 33 -46 -2 -128 -45 -184
-98 -56 -52 -82 -55 -125 -14 -23 22 -46 33 -86 39 -30 5 -57 7 -61 5 -17 -11
-118 -15 -118 -5 0 6 24 28 53 49 28 22 78 67 110 100 63 67 71 98 36 133 -20
20 -22 20 -47 3 -15 -9 -36 -25 -47 -34 -24 -22 -149 -111 -227 -162 -97 -64
-199 -115 -298 -146 -202 -64 -463 -133 -493 -130 -43 4 -49 38 -12 70 44 38
82 100 90 148 18 104 2 200 -32 200 -43 0 -165 -112 -195 -178 -10 -23 -22
-64 -25 -92 l-6 -50 41 -18 41 -18 -47 -36 c-60 -45 -76 -54 -176 -89 -79 -29
-152 -39 -176 -24 -16 10 -7 49 34 148 92 216 180 429 207 498 38 98 115 191
216 264 43 30 155 93 249 139 210 103 278 149 354 237 64 74 90 117 90 147 0
24 -30 52 -57 52 -28 0 -107 -55 -142 -99 -17 -21 -54 -57 -84 -79 -62 -48
-435 -236 -488 -246 -35 -6 -37 -5 -43 25 -3 17 -6 53 -6 78 0 26 -11 109 -25
184 -14 75 -36 197 -49 270 -46 249 -58 302 -84 360 l-25 58 31 32 c40 41 54
79 54 147 1 68 -24 128 -81 193 -59 66 -85 64 -102 -5 -7 -29 -13 -100 -13
-158 -1 -98 1 -109 28 -157 28 -51 29 -54 16 -112 -11 -52 -10 -70 8 -157 45
-220 53 -265 68 -414 29 -279 5 -410 -103 -571 -51 -75 -138 -216 -186 -301
-15 -25 -65 -84 -113 -130 -47 -45 -110 -115 -140 -155 -57 -75 -106 -113
-144 -113 -15 0 -55 33 -124 103 -174 176 -390 408 -424 456 -89 123 -212 398
-287 641 -18 58 -42 134 -54 170 -11 36 -45 148 -75 250 -49 165 -66 216 -104
312 -6 15 -23 35 -37 44 -25 16 -25 17 -6 31 28 19 45 82 37 136 -9 58 -55
130 -103 160 -68 43 -122 67 -128 58z m-490 -1331 c27 -28 28 -32 17 -69 -13
-41 -40 -61 -53 -39 -4 7 -19 28 -33 47 -31 41 -31 48 -9 73 23 26 45 22 78
-12z m625 -535 c38 -20 48 -57 27 -101 -20 -41 -39 -43 -66 -6 -31 44 -36 80
-16 102 22 24 19 24 55 5z m904 -388 c98 -111 116 -141 109 -179 -5 -25 -8
-23 -66 45 -33 40 -92 105 -130 146 l-70 74 23 19 c19 15 26 17 35 6 7 -7 51
-57 99 -111z m2671 -253 c39 -15 53 -93 22 -131 -18 -24 -33 -13 -59 41 l-26
53 21 22 c12 11 22 21 23 21 1 0 10 -3 19 -6z m-2012 -44 c7 -20 -1 -50 -36
-140 -59 -149 -87 -281 -97 -460 -5 -80 -9 -146 -9 -147 -1 -2 -14 -3 -31 -3
-39 0 -53 28 -54 110 0 81 14 199 25 206 5 3 9 23 9 44 0 88 40 217 106 337
48 89 70 102 87 53z m-2164 -56 c23 -29 27 -64 11 -95 -17 -30 -37 -23 -71 27
-27 39 -30 49 -20 70 15 33 54 32 80 -2z m2510 2 c-7 -14 -32 -39 -58 -57
-106 -74 -155 -136 -195 -249 -28 -76 -56 -252 -56 -346 0 -58 -7 -68 -44 -58
-21 5 -26 14 -32 52 -8 57 11 264 32 346 32 123 111 214 251 288 104 55 117
58 102 24z m-605 -62 c10 -27 -44 -307 -62 -321 -23 -18 -31 -16 -37 10 -11
44 32 272 60 318 10 15 32 11 39 -7z m-1104 -449 c28 -30 31 -79 6 -103 -17
-16 -19 -15 -52 22 -38 44 -43 72 -16 92 25 19 36 17 62 -11z m1190 -236 c0
-24 -23 -50 -60 -69 -35 -18 -90 -27 -90 -16 0 2 -3 12 -6 20 -5 12 9 23 57
46 67 31 99 37 99 19z m251 -29 c23 -13 25 -53 3 -71 -32 -27 -36 -60 -24
-224 7 -88 18 -177 25 -198 14 -38 13 -40 -20 -88 -47 -69 -67 -136 -65 -222
1 -78 1 -118 -1 -302 -1 -160 25 -286 96 -461 48 -116 65 -174 51 -174 -2 0
-11 -3 -19 -6 -30 -11 -132 209 -176 379 -11 43 -28 156 -37 250 -13 145 -14
196 -4 322 15 192 22 220 73 272 l41 43 -19 52 c-19 55 -29 68 -55 68 -11 0
-15 -11 -15 -39 0 -44 -22 -74 -70 -98 -42 -22 -46 -31 -40 -90 7 -55 -17
-163 -35 -163 -35 0 -54 117 -26 155 10 14 12 35 9 72 l-6 52 48 28 c68 40 96
63 90 74 -4 5 -42 9 -85 9 -122 0 -115 18 38 94 94 47 111 68 78 95 -11 9 -27
7 -73 -9 -70 -25 -142 -40 -160 -33 -7 3 -13 13 -13 22 0 11 23 25 78 45 122
46 142 57 158 87 26 51 110 83 155 59z m-381 -880 c0 -16 -24 -50 -35 -50 -2
0 -11 7 -19 16 -20 20 -20 38 0 58 19 20 54 5 54 -24z m-12 -222 c13 -13 14
-92 3 -173 -6 -44 -8 -47 -18 -30 -15 29 -33 118 -33 170 0 37 3 45 18 45 10
0 23 -5 30 -12z"/>
<path d="M3380 7931 c-14 -4 -42 -20 -63 -34 -21 -14 -52 -29 -70 -32 -18 -4
-39 -14 -48 -21 -14 -12 -17 -11 -27 10 -15 34 -66 58 -126 61 -56 3 -186 -39
-186 -60 0 -19 76 -84 107 -91 36 -9 180 12 208 30 20 13 22 12 33 -18 7 -18
12 -42 12 -54 0 -20 -5 -22 -64 -22 -105 0 -149 -52 -148 -175 1 -98 31 -175
93 -237 26 -26 52 -48 58 -48 5 0 23 11 39 25 37 31 47 31 83 0 33 -27 46 -25
98 13 45 33 88 103 112 184 18 57 19 75 10 118 -21 99 -61 130 -166 130 -72 0
-68 -6 -49 61 6 20 11 21 74 15 94 -8 116 2 147 70 16 36 22 59 16 65 -14 14
-112 20 -143 10z m10 -313 c23 -25 26 -74 6 -100 -20 -27 -32 -22 -60 28 -31
55 -32 69 -8 83 26 16 39 13 62 -11z"/>
<path d="M7129 7920 c-20 -4 -59 -21 -86 -38 -27 -18 -58 -32 -69 -32 -10 0
-44 16 -74 35 -49 32 -61 35 -126 35 -40 0 -84 -4 -98 -10 -23 -8 -24 -12 -15
-38 5 -16 25 -46 43 -66 l34 -36 97 3 c86 2 98 0 111 -17 8 -11 14 -28 14 -38
0 -16 -9 -18 -69 -18 l-69 0 -41 -46 c-23 -26 -43 -61 -47 -81 -15 -81 25
-211 85 -270 43 -44 65 -49 107 -24 42 25 57 26 74 6 39 -47 136 19 186 128
36 79 40 181 8 225 -36 47 -82 72 -135 72 -26 0 -51 5 -54 10 -3 6 -1 26 6 45
10 26 17 34 29 29 8 -4 43 -13 76 -21 83 -20 134 -6 191 52 50 50 53 63 16 70
-16 3 -44 10 -63 16 -48 13 -89 16 -131 9z m-24 -312 c27 -32 28 -65 3 -95
-17 -21 -27 -15 -58 34 -35 54 -35 56 -14 77 23 23 39 20 69 -16z"/>
<path d="M5847 7806 c-73 -51 -93 -73 -117 -129 -18 -41 -21 -65 -18 -137 3
-77 6 -91 32 -124 49 -64 80 -78 161 -72 l70 6 18 -31 c10 -18 16 -33 15 -35
-2 -1 -32 -5 -68 -8 -71 -7 -97 -24 -124 -81 -20 -42 -20 -137 -1 -201 18 -61
81 -145 118 -158 23 -8 31 -6 56 18 l28 27 38 -25 c21 -14 41 -26 45 -26 15 0
88 60 109 89 12 16 33 56 47 88 22 48 25 68 21 120 -8 110 -62 163 -165 163
l-53 0 7 38 c9 49 15 55 49 42 17 -6 51 -8 82 -4 58 7 101 40 123 95 20 46 9
56 -67 61 -82 6 -135 -13 -199 -72 -24 -22 -47 -40 -51 -40 -4 0 -23 16 -43
35 -29 28 -50 38 -97 47 l-61 11 44 36 c66 55 89 109 89 211 0 78 -2 85 -20
87 -11 1 -42 -13 -68 -31z m315 -613 c32 -30 35 -58 12 -91 -22 -32 -36 -28
-73 24 l-32 46 22 24 c29 30 37 30 71 -3z"/>
<path d="M4030 7759 c0 -35 38 -105 72 -134 23 -20 41 -25 81 -25 29 0 68 4
86 10 19 5 36 9 37 7 1 -1 9 -26 18 -56 l16 -54 -55 7 c-129 15 -202 -97 -164
-252 17 -70 84 -164 138 -192 l40 -20 31 26 31 27 36 -26 c30 -21 40 -24 64
-15 78 27 170 212 155 313 -8 53 -38 100 -78 125 -27 17 -43 19 -90 14 -65 -7
-65 -6 -47 59 6 23 14 35 21 31 6 -4 48 -11 92 -15 91 -8 99 -4 152 72 41 60
26 70 -103 67 -104 -3 -105 -3 -134 -35 -23 -26 -36 -33 -66 -33 -33 0 -40 5
-53 33 -23 50 -95 81 -197 85 -81 4 -83 3 -83 -19z m477 -341 c13 -12 23 -28
23 -35 0 -24 -30 -73 -45 -73 -15 0 -49 43 -60 78 -15 49 40 69 82 30z"/>
<path d="M4730 7537 c0 -74 18 -143 50 -188 50 -69 238 -124 331 -96 l47 14 6
-37 c3 -21 9 -46 12 -55 6 -14 -1 -15 -58 -9 -63 6 -66 5 -101 -26 -90 -79
-67 -246 51 -372 49 -53 78 -60 107 -28 23 25 30 25 66 -1 26 -18 34 -19 60
-9 71 30 151 172 152 270 0 58 -11 89 -47 128 -36 41 -71 53 -126 46 l-50 -7
0 46 0 45 79 -5 c76 -6 80 -5 104 21 26 28 53 108 42 125 -8 14 -98 14 -143 1
-19 -5 -53 -30 -78 -57 l-44 -47 -31 37 c-38 46 -69 63 -134 71 -47 7 -52 10
-80 58 -16 27 -49 63 -72 79 -39 27 -112 59 -134 59 -5 0 -9 -29 -9 -63z m615
-457 c32 -35 18 -110 -21 -110 -33 0 -80 100 -57 123 14 14 61 6 78 -13z"/>
<path d="M7444 7509 c-132 -68 -194 -189 -150 -294 13 -31 41 -55 64 -55 27 0
112 83 136 132 27 55 52 194 41 228 -9 27 -22 25 -91 -11z"/>
<path d="M6466 7475 c-20 -24 -46 -65 -57 -91 -44 -98 -21 -276 37 -290 34 -9
57 15 97 95 30 61 32 73 32 166 0 169 -37 209 -109 120z"/>
<path d="M4721 7183 c-44 -53 -97 -161 -105 -211 -10 -70 30 -139 74 -124 28
9 72 57 97 107 21 39 27 69 31 142 5 101 -3 123 -43 123 -15 0 -35 -14 -54
-37z"/>
<path d="M3433 7187 c-36 -15 -53 -28 -53 -39 0 -27 70 -99 115 -119 60 -27
161 -41 192 -26 23 10 25 15 19 56 -13 93 -66 140 -164 147 -42 2 -70 -2 -109
-19z"/>
<path d="M6621 7167 c-17 -21 32 -111 76 -138 29 -18 44 -21 91 -16 31 3 67 9
78 12 19 6 24 0 39 -45 9 -28 15 -53 14 -55 -2 -1 -29 1 -59 6 -51 8 -58 7
-95 -19 -105 -73 -93 -258 27 -388 51 -55 69 -61 108 -32 25 18 34 20 48 10
46 -33 62 -36 97 -19 40 19 103 109 134 192 34 90 5 204 -62 246 -26 16 -43
19 -89 15 -64 -6 -64 -7 -47 59 10 39 13 43 33 36 47 -18 128 -23 173 -10 57
16 116 69 111 101 -2 18 -15 27 -53 40 -103 35 -200 16 -240 -49 -30 -49 -76
-46 -131 8 -25 25 -56 44 -80 50 -60 13 -160 11 -173 -4z m464 -330 c8 -12 15
-33 15 -47 0 -26 -25 -70 -39 -70 -10 0 -71 85 -71 99 0 6 9 20 19 30 23 23
55 18 76 -12z"/>
<path d="M7545 7041 c-92 -43 -128 -80 -150 -153 -22 -75 -20 -120 8 -145 34
-30 50 -33 93 -14 86 39 152 152 168 287 5 42 3 53 -10 58 -23 9 -21 9 -109
-33z"/>
<path d="M4220 6876 c0 -15 55 -103 84 -134 38 -43 93 -64 166 -64 70 -1 103
11 119 41 31 58 -51 132 -166 149 -115 18 -203 21 -203 8z"/>
<path d="M4793 6810 c-18 -10 -40 -31 -49 -45 -15 -22 -23 -25 -63 -23 l-46 3
2 -42 c1 -23 9 -55 18 -72 l16 -31 -57 0 c-68 0 -112 -24 -144 -78 -19 -32
-22 -48 -18 -117 6 -110 58 -209 134 -255 l33 -21 39 22 38 22 32 -23 c27 -20
34 -21 60 -11 16 7 47 31 70 54 107 110 123 304 31 382 -27 22 -40 25 -106 25
-64 0 -74 2 -69 16 3 9 6 26 6 39 0 23 2 23 78 18 72 -5 79 -4 108 20 17 14
35 42 41 62 10 32 9 39 -8 56 -26 26 -103 26 -146 -1z m42 -305 c29 -28 32
-70 8 -97 -23 -26 -35 -22 -65 21 -32 45 -34 63 -12 85 22 22 41 20 69 -9z"/>
<path d="M5385 6648 c-27 -17 -71 -48 -96 -69 -26 -22 -52 -39 -58 -39 -6 0
-39 11 -72 25 -46 20 -64 23 -79 15 -23 -12 -23 -15 -10 -95 15 -93 37 -133
76 -141 48 -9 69 2 120 61 25 30 66 65 91 77 25 12 53 34 64 49 35 50 50 151
22 148 -4 0 -30 -14 -58 -31z"/>
<path d="M7328 6663 c-8 -10 -28 -40 -43 -66 -28 -49 -30 -86 -9 -155 7 -23 5
-23 -39 -17 -69 11 -113 -8 -148 -63 -37 -58 -38 -112 -5 -203 32 -89 39 -101
81 -138 41 -36 66 -39 105 -11 27 19 28 19 52 1 44 -35 65 -32 113 17 70 71
118 194 104 269 -15 78 -75 133 -146 133 -23 0 -44 3 -46 8 -3 4 10 54 29 112
19 57 32 110 30 117 -8 19 -60 16 -78 -4z m112 -345 c16 -27 17 -35 6 -62 -18
-45 -48 -46 -75 -1 -25 43 -26 53 -4 77 24 27 51 22 73 -14z"/>
<path d="M7564 6641 c-56 -16 -121 -57 -154 -96 -20 -24 2 -41 92 -71 54 -18
91 -24 115 -21 58 10 121 54 160 113 47 71 38 81 -72 88 -60 4 -95 1 -141 -13z"/>
<path d="M2416 6641 c-8 -12 11 -181 23 -214 24 -62 140 -147 201 -147 26 0
29 17 18 114 -13 121 -52 182 -143 225 -58 27 -92 35 -99 22z"/>
<path d="M6454 6521 c-23 -10 -56 -37 -74 -59 -38 -48 -74 -59 -88 -27 -17 37
-78 60 -157 59 -122 -3 -148 -26 -101 -89 40 -52 82 -67 162 -56 37 6 72 15
77 20 18 18 24 13 31 -25 4 -19 10 -42 13 -50 4 -11 -6 -14 -48 -14 -68 0
-111 -25 -140 -81 -17 -35 -20 -55 -17 -118 4 -88 29 -148 84 -205 45 -47 78
-55 108 -27 26 25 49 27 66 6 7 -8 28 -15 48 -15 29 0 43 8 78 44 54 57 100
184 90 254 -12 89 -77 152 -158 152 l-48 0 0 38 0 37 94 0 c86 0 97 2 120 24
39 37 89 119 82 136 -9 23 -168 20 -222 -4z m0 -312 c44 -20 56 -86 24 -126
-17 -21 -32 -14 -60 28 -32 45 -36 83 -10 98 21 13 17 13 46 0z"/>
<path d="M6784 6334 c-63 -69 -78 -106 -82 -199 -3 -90 10 -128 47 -133 32 -5
103 71 125 134 16 47 20 150 7 209 -10 50 -44 46 -97 -11z"/>
<path d="M3024 6248 c-12 -20 -7 -213 6 -239 26 -51 106 -119 139 -119 31 0
70 136 57 203 -8 42 -76 116 -133 146 -48 24 -59 26 -69 9z"/>
<path d="M7719 6222 c-72 -27 -103 -56 -133 -122 -32 -71 -38 -143 -13 -167
14 -14 19 -14 59 1 72 29 109 57 140 105 32 51 73 174 63 191 -9 15 -63 11
-116 -8z"/>
<path d="M2418 6193 c-28 -3 -38 -9 -38 -21 1 -30 40 -106 73 -140 30 -32 89
-69 112 -71 6 0 28 -3 50 -6 73 -11 133 -9 149 4 16 14 22 51 9 51 -5 0 -24
22 -43 49 -43 61 -110 108 -181 126 -54 15 -61 15 -131 8z"/>
<path d="M4880 6070 c-140 -50 -140 -50 -140 -79 0 -38 26 -70 74 -92 51 -23
85 -24 115 -3 47 33 79 152 49 182 -16 16 -33 15 -98 -8z"/>
<path d="M3920 5883 c0 -134 57 -218 174 -258 81 -28 90 -20 83 69 -9 119 -43
170 -152 224 -109 54 -105 55 -105 -35z"/>
<path d="M6699 5580 c-63 -11 -123 -43 -156 -85 -15 -19 -34 -35 -42 -35 -8 0
-35 13 -60 29 -25 16 -65 35 -88 41 -37 11 -46 10 -87 -9 -92 -45 -116 -80
-78 -114 20 -18 108 -41 123 -31 6 3 35 9 65 13 l55 8 19 -45 c11 -24 20 -46
20 -48 0 -2 -26 -4 -58 -4 -48 0 -62 -4 -79 -22 -36 -40 -46 -71 -46 -145 0
-61 5 -82 32 -137 33 -67 89 -126 120 -126 10 0 26 9 36 20 10 11 22 20 27 20
6 0 21 -9 35 -20 42 -33 75 -26 121 24 92 99 127 237 83 323 -37 74 -86 95
-178 78 l-42 -7 6 53 c3 30 7 55 8 57 1 2 23 -2 49 -9 27 -6 66 -8 93 -4 41 6
56 15 101 61 45 46 53 60 50 87 -3 30 -6 32 -43 34 -22 0 -61 -2 -86 -7z m-46
-347 c33 -37 26 -108 -11 -121 -16 -5 -82 64 -82 85 0 45 63 69 93 36z"/>
<path d="M5763 5190 c-19 -8 -21 -13 -13 -35 20 -53 40 -82 89 -132 54 -55 95
-73 167 -73 40 0 42 -1 52 -42 12 -47 4 -60 -35 -53 -13 2 -38 -8 -62 -25 -48
-35 -66 -88 -57 -168 8 -64 23 -103 64 -159 46 -62 64 -68 101 -37 l31 25 33
-25 c19 -14 43 -26 53 -26 40 0 92 48 126 117 29 59 33 78 33 145 0 62 -4 82
-21 104 -30 40 -91 69 -148 69 l-48 0 6 68 c7 72 9 68 -49 71 -14 1 -25 15
-38 51 -23 63 -31 71 -89 101 -54 27 -158 40 -195 24z m474 -412 c27 -25 30
-60 7 -82 -20 -21 -37 -20 -56 2 -32 36 -39 60 -26 82 17 26 46 25 75 -2z"/>
<path d="M3319 5030 c-64 -33 -110 -83 -128 -138 -15 -47 -27 -252 -15 -252
11 0 107 71 147 108 49 46 77 104 86 178 8 73 -2 134 -22 134 -7 -1 -37 -14
-68 -30z"/>
<path d="M6960 5042 c0 -22 87 -137 117 -155 47 -27 122 -33 179 -13 54 18 94
51 94 77 0 25 -44 56 -102 74 -61 18 -288 31 -288 17z"/>
<path d="M4154 4928 c11 -122 24 -157 80 -213 58 -57 135 -101 159 -92 14 5
16 19 11 93 -6 92 -29 154 -75 203 -39 41 -111 81 -147 81 l-34 0 6 -72z"/>
<path d="M6795 4968 c-19 -46 -28 -122 -21 -163 9 -48 56 -99 131 -140 71 -40
91 -43 100 -16 8 27 -4 137 -21 192 -24 75 -108 159 -159 159 -9 0 -22 -15
-30 -32z"/>
<path d="M2971 4968 c-113 -20 -107 -108 8 -108 73 0 118 21 136 64 8 20 15
40 15 46 0 12 -87 11 -159 -2z"/>
<path d="M5760 4909 c-70 -47 -88 -68 -110 -126 -23 -61 -31 -166 -14 -183 17
-17 74 10 128 60 54 50 79 116 80 210 1 58 -1 65 -19 68 -11 1 -40 -12 -65
-29z"/>
<path d="M6496 4772 c-11 -18 -36 -134 -36 -168 0 -22 9 -54 20 -72 23 -37
104 -92 136 -92 19 0 24 8 34 57 25 119 -10 230 -83 264 -46 20 -63 23 -71 11z"/>
<path d="M4076 4641 c-39 -62 -56 -110 -56 -162 0 -58 28 -96 78 -104 67 -11
120 80 102 176 -5 27 -14 58 -20 68 -11 21 -58 61 -71 61 -5 0 -20 -17 -33
-39z"/>
<path d="M4235 3024 c-11 -2 -83 -8 -160 -14 -194 -15 -222 -18 -285 -31 -30
-7 -64 -13 -75 -15 -134 -19 -466 -104 -665 -171 -302 -102 -464 -168 -495
-202 -18 -20 -18 -25 -4 -49 8 -15 29 -34 46 -43 38 -19 94 -10 279 47 66 20
162 49 214 65 52 15 128 39 167 53 40 15 79 26 87 26 8 0 64 16 125 35 61 19
151 42 199 51 48 9 110 23 138 31 46 13 54 13 84 -2 31 -16 31 -17 14 -36 -9
-10 -36 -24 -58 -30 -256 -68 -1017 -321 -1103 -368 -11 -5 -26 -24 -33 -41
-12 -28 -11 -33 10 -55 13 -14 31 -25 39 -25 9 0 79 23 156 51 77 28 217 77
310 109 94 32 208 74 255 93 47 19 150 57 230 85 236 81 338 134 478 249 66
54 152 146 152 163 0 23 -48 33 -105 24z"/>
<path d="M5367 2283 c-11 -11 -8 -84 7 -146 7 -32 30 -84 50 -117 36 -59 80
-198 70 -224 -13 -34 73 -168 143 -223 54 -43 114 -71 218 -104 102 -33 147
-36 169 -13 38 37 13 65 -134 149 -179 103 -250 186 -250 291 0 78 9 79 72 4
101 -121 201 -185 456 -296 160 -70 215 -80 246 -45 31 34 17 63 -44 93 -30
15 -106 52 -168 82 -161 78 -334 177 -427 243 -44 31 -56 34 -97 30 -26 -2
-49 -1 -50 2 -2 3 -22 21 -46 40 -23 18 -70 72 -104 120 -50 71 -93 121 -103
121 -1 0 -5 -3 -8 -7z"/>
<path d="M5425 1480 c-13 -40 48 -117 84 -105 33 10 25 44 -19 87 -46 43 -56
46 -65 18z"/>
</g>
</svg>
